<?xml version="1.0" encoding="UTF-8" standalone="no"?><!DOCTYPE svg PUBLIC "-//W3C//DTD SVG 1.1//EN" "http://www.w3.org/Graphics/SVG/1.1/DTD/svg11.dtd"><svg width="100%" height="100%" viewBox="0 0 4672 3025" version="1.1" xmlns="http://www.w3.org/2000/svg" xmlns:xlink="http://www.w3.org/1999/xlink" xml:space="preserve" xmlns:serif="http://www.serif.com/" style="fill-rule:evenodd;clip-rule:evenodd;stroke-linecap:round;stroke-linejoin:round;stroke-miterlimit:1.5;"><g id="LOGO-BLACK" serif:id="LOGO BLACK"><g id="Pendel"><ellipse cx="1774.47" cy="1254.28" rx="292.458" ry="288.313" style="fill:#070707;"/><path d="M1773.73,14.583l-2.223,1241.18" style="fill:none;stroke:#000;stroke-width:29.17px;"/></g><path d="M1775.34,1878.2c46.48,-2.352 150.258,-11.682 250.996,-54.566c83.166,-35.404 162.437,-97.693 221.769,-162.393c68.629,-74.839 111.733,-170.33 132.729,-250.381c22.615,-86.222 20.394,-154.357 20.394,-154.357l1140.31,-2.224l-771.786,312.702l487.295,154.02l-589.052,67.153l467.53,600.897l-734.292,-289.649l70.011,669.949l-462.612,-499.915l-237.985,755.309l-239.041,-753.824l-469.443,500.375l76.887,-682.693l-731.547,298.964l467.531,-600.897l-589.053,-67.153l492.509,-153.022l-778.481,-309.992l1149.45,0c0,0 -3.801,216.289 126.447,371.589c43.904,52.349 90.827,103.221 147.308,141.4c111.348,75.267 243.908,114.185 352.134,108.708Z"/></g><text id="SOLEN-BLACK" serif:id="SOLEN BLACK" x="2292.77px" y="1087.45px" style="font-family:'Academico-BoldItalic', 'Academico', serif;font-weight:700;font-style:italic;font-size:615.103px;">SOLEN</text></svg>